<?xml version="1.0" encoding="utf-8"?>
<svg baseProfile="tiny-ps" version="1.2" viewBox="0 0 514.8 515.2" xmlns="http://www.w3.org/2000/svg">
  <title>AS_Email_Logo</title>
  <!-- Generator: Adobe Illustrator 29.2.1, SVG Export Plug-In . SVG Version: 2.1.0 Build 116)  -->
  <path d="M124.4,0c1.6,3,2.9,6,4.5,9-.6,3.7.7,7.7,4.5,9,26.3,50.3,53,100.2,78.6,150.5s6,12.9,9.2,19.3,2.7,5,4.4,5c-.5,1,1.2,2.5-2,2.4-1.4,4.5-8.4,12.2-9.2,16.3h-1.5c-17.9-19.6-38.1-37.2-56.5-56.3s-6.7-7.1-9.4-10.4c-16.9-20.7-39.3-40.3-58.4-59.2-19.7-19.5-39.5-38.5-58.9-58C20.5,18.5,12,9.1,3,0h121.4Z" fill="#bf0000" />
  <path d="M511.8,0l-3.7,4.5c-16.2,14.9-31.2,31.4-46.4,46.9-12.4,12.6-27.9,25.9-39,39.4-4.6,1.3-5.5,5.4-8.2,8.2-5.6,5.9-11.8,11.5-17.6,17.3-20.8,20.9-41.5,41.3-62.6,62.2l-2.7-3.3c.2-2.7-2.5-2.8-1.8-5.3s1.7.2,1.6-3.1-1.4-1.7-1.6-2.4c-.3-1.3-.2-6.5-1.5-7.3s-1.3.4-1.4.2c-.5-.6-.3-2.9-2-3.6l-2.6,2.2c-.5-.3-2.2-.5-3-.8v-1.5c-1.9-.2-3.8.2-5.7,0s-1.7-.8-1.8-.8L390.4,0h121.4Z" fill="#bf0000" />
  <path d="M430.1,339c26.3,11.6,57,26.9,82.4,40.5-1.6,2.1,1.2,2.9,1.3,3.4s.2,3.6.2,4.5c1.5,37-.5,75.3,0,112.6s-.5,3.3.8,4.1v11.2h-.7c.2-1.5-.9-1.6-1.5-2.2-38-42.1-82.5-80.3-121.4-121.9l-3-1.9c2.9-1.5,3.4-2.7,4.7-3.5s4.8-1.5,5.5-2,13.7-12.6,14.3-13.5.3-2.5.9-3.8,4.7-4.4,5.2-5.6c1.4-3.1,3.6-9.6,4.5-12.9s2.2-4.7,2.2-5c.4-1.5-.1-3.8,0-5.5,1.2,1.2,3.5,1,4.5,1.5Z" fill="#febf00" />
  <path d="M215.8,0l28.5,172.5c-.8.7-5.2,6.8-6.2,7.3s-2.6,0-2.8.2.2,1.8-.2,2.8c-.7,1.6-7.9,6.5-9.5,10-1.7,0-3.8-3.8-4.4-5-3.2-6.4-6-13-9.2-19.3-25.6-50.3-52.3-100.1-78.6-150.5s-2.9-6-4.5-9-2.9-6-4.5-9h91.4Z" fill="#febf00" />
  <path d="M66.7,347.2c1.8,0,2,.9,2.8,2.1,2.7,3.8,5.1,7.1,7.7,10.2,5.7,6.8,14,11.2,22.7,14.1s4.5,2.5,8,2.9c-.4,2.3,1.1,1.5,2.6,1.5,4.1.1,8.7.2,12.8,0s3,.8,2.6-1.5c1.9,0,4.5.7,5.2-1.5.7,0,1.5,0,2.2,0,1.8,0,3.6-.3,5.2.8-1.6,2.2-3.6,4.1-5.6,6-4.4,4.1-9.2,8.4-13.9,12.7s-2,3.1-3.4,4.5c-35,35.3-69.5,69.8-104.6,105-2.2-1.1-5.1,4.4-5.6,4.5l-4.2-4.1c-1.1-39,1.6-78.9,0-117.8,0-1.4.8-3-1.5-2.6v-3c19-11,39.8-18.6,59-29,.8-.4.9-1.3,1.5-1.7,1.6-.9,4.8-.8,6.2-3Z" fill="#febf00" />
  <path d="M390.4,0l-78.7,153c-6-.4-13.8-.2-19.9,0s-3-.8-2.6,1.5c-5.3.4-10.7,2.3-15.7,3.8,3.1-24.8,8.4-49.4,11.2-74.2,2.3-5.2,2.1-11,3-16.5,3.5-22.5,7.8-44.9,10.5-67.5h92.2Z" fill="#febf00" />
  <path d="M298.2,0c-2.7,22.6-7,45-10.5,67.5-3.4,5-2.4,11-3,16.5-2.8,24.8-8.1,49.4-11.2,74.2-5.8,1.7-10.3,3.7-15.7,5.2s-1.6-.2-2.5,0-1.9,2.8-5,1.5c0,1,.1,2,0,3-.3,2.3-4,2.8-6,4.5L215.8,0h82.4Z" fill="#bf0000" />
  <path d="M3,133.5c24.4,11.5,48.8,23.8,72.9,35.4,39.2,18.8,78.6,37.3,117.4,56.9-2.9,0-8.4.5-11.7.7s-1.9-.4-1.8,2.3c-5,.2-10-.2-15,0s-5-.1-7.5,0-6.9.5-10.2.7-1.9-.4-1.8,2.3c-4.4.6-9,1.7-13.5,2.2-34.6-5.1-69-12.1-103.4-18,.4-2.3-1.1-1.4-2.6-1.5-4.1-.3-5-1.3-7.9-1.5-4.8-3.7-11.9,1.3-15.5-4.1,2.2-3.5-3.2-4.1.3-5.1-1.1-17.7,2.2-39.1.3-56.5s-1.6-3.6-1.6-5.2,1.5-.4,1.6-2.9,0-2.8-3-2.7v-3.8c.9.3,2.2.4,3,.8Z" fill="#bf0000" />
  <path d="M12,213c5.1,2.1,11.2,2.1,16.5,3,34.5,5.9,68.8,12.9,103.4,18,.4,2.3-1.1,1.3-2.5,1.6-10,2.3-31.1,13.5-38,20.9-3.6-.6-6.4,4.4-8.2,6.8-4.4,5.6-8.3,10.8-11.3,16.6s-2.1,1-1.5,3.5l-2,.2c-.3,2.5-1.5,4.1-2.4,6.7l-30.7,4.5-33.7,6c-.8-27.2,1.1-55,0-82.2s.8-3-1.5-2.6v-4.5c4,.6,7.9,1.2,12,1.5Z" fill="#febf00" />
  <path d="M475.1,294c5.2,2.1,11.1,2.1,16.5,3s6.1.6,9,1.5l14.2,3v78.8c-.6-.5-1.7-.5-2.2-.8-25.4-13.6-56.1-28.9-82.4-40.5.8-2.2-1.4-1.9-1.6-3.3-.5-3.9.4-8.7,0-12.8s.4-1.9-2.2-1.8c-1.1-10.1-5.2-18.8-9.5-27.3s-2.6-6.7-4-8.7c2.3-1,6.8-.3,9.3,0,17.4,2.5,35.5,7.5,52.9,8.9Z" fill="#bf0000" />
  <path d="M514.8,132.8v78.8l-55.5,9c3.6-21.8-9.6-41.2-30-45.8-.4-1.8.9-1.6,2-2.1,4.9-2.6,25-10.9,27.3-13.6,7.8-2.4,15.1-7,22.5-10.5,9.4-4.6,19.1-8.9,28.5-13.5s3.3-1.9,5.2-2.2Z" fill="#bf0000" />
  <path d="M65.9,290.2c-1.6,4.6-3,9.5-3.7,14.2-2.6,0-2.1-.5-2.2,1.8s-.7,21.3,0,22.2,1.3-.2,1.5,0,.6,1.8.7,2.2c1.5,5,.7,10.4,4.5,15-.1.4.2,1.2,0,1.5-1.4,2.3-4.5,2.1-6.2,3s-.7,1.2-1.5,1.7c-19.2,10.4-40,18.1-59,29v-9l3-1.2v-56.2s-1.6-3.7-1.6-3.7c3.8-1.5-.3-1.2,0-3.8s.9-.8,1.6-1.5l-1.5-2.6c2.4,1.1,3.2-1.4,3.5-1.5,1.9-.5,4.6.4,6.5,0,5.8-1.4,13.1-3,19-4.5s7.4,1.5,4.7-2.3l30.7-4.5Z" fill="#bf0000" />
  <path d="M3,0c9,9.1,17.5,18.5,26.5,27.5,19.4,19.5,39.3,38.5,58.9,58v1.5c-4.5.5-2.3-.7-3-2.4-1.5-3.3-5.5-.5-4.5-5.1h-2.2c1.6-2.1-3.6-3.5-3.7-6l-1.5,1.5c1.1-3.7-2.5-3.7-4.1-5.3-4.3-4.5-8.5-9.6-12.7-13.9s-4.4-4.7-4.7-4.8c-1.3-.6-2.4.1-2.4,0-.2-.4.2-1.7-.2-2.8s-3.6-2.2-4.1-2.7-.1-1.4-.5-1.7c-2.2-2.2-3.8-4.9-7.2-3.3.5-2.2-.2-5.4-2.5-6.2s-2,.3-2,.2c-.2-.4.2-1.8-.2-2.8s-8.1-8-9.3-9.2c-3.2-3.2-7.2-7.2-10.5-10.5S2.7,1.7,2.3,2.3c1.4,2.8-1.8,2.3-.8,6.3s1.9-.1,1.5,1.6l-1.6,1.4v119.4s1.6,2.6,1.6,2.6c-.8-.4-2.1-.4-3-.8V0h3Z" fill="#f8bf11" />
  <path d="M35.2,294.8c2.6,3.7-2.7,1.8-4.7,2.3-5.9,1.4-13.2,3.1-19,4.5s-4.6-.4-6.5,0-1.1,2.6-3.5,1.5l1.5,2.6c-.7.7-1.4,0-1.6,1.5-.2,2.5,3.8,2.3,0,3.8l1.6,3.7v56.2s-3,1.2-3,1.2v-71.2h1.5l33.7-6Z" fill="#b80501" />
  <path d="M0,136.5c3,0,3.3-.7,3,2.7s-1.7,1.5-1.6,2.9,1.4,2.9,1.6,5.2c1.9,17.4-1.4,38.8-.3,56.5-3.6,1,1.9,1.6-.3,5.1,3.6,5.3,10.8.3,15.5,4.1-2-.1-4,.2-6,0-4.1-.3-8-.9-12-1.5v-75Z" fill="#b70400" />
  <path d="M0,384c2.3-.4,1.4,1.1,1.5,2.6,1.5,38.9-1.1,78.8,0,117.8l4.2,4.1c.6-.1,3.5-5.6,5.6-4.5-2.9,2.9-5.4,6.1-8.2,9s-1.9,1-2.2,2.2h-.7v-131.2Z" fill="#f8bf11" />
  <path d="M511.8,0h3v132.8c-1.9.3-3.5,1.4-5.2,2.2-.4-1.7,2.8-2.7,3-3.5.6-3-.4-7.3,0-10.4s1.4-.7,1.6-2.1c3.7-29.1-2.9-66.1,0-96.1-2.1-1.9-2-5.4-1.6-8.3s1.4-1,1.6-1.6c.9-3.2-1.9-1.9-1.5-3.6,3.1-1.2,1.6-4.7-.5-6.4l-4,1.5,3.7-4.5Z" fill="#f9bf0f" />
  <path d="M0,216c2.3-.4,1.4,1.1,1.5,2.6,1.1,27.1-.8,55,0,82.2H0v-84.8Z" fill="#f8bf11" />
  <path d="M514.8,380.2v123.8c-1.2-.8-.7-2.8-.8-4.1-.5-37.2,1.5-75.5,0-112.6,0-.9,0-4-.2-4.5s-3-1.3-1.3-3.4c.5.3,1.6.2,2.2.8Z" fill="#f8bf12" />
  <path d="M391.2,513l2.6,1.6c38.5-1.2,77.8,1.5,116.2,0,1.4,0,3,.8,2.6-1.5.6.6,1.7.8,1.5,2.2h-122.1l-.7-.8v-1.5Z" fill="#a90908" />
  <path d="M3,513c-.4,2.3,1.1,1.4,2.6,1.5,38.4,1.5,77.7-1.2,116.2,0l2.6-1.6c-.2.5-.5,1-.7,1.5v.8H.7c.3-1.2,1.6-1.6,2.2-2.2Z" fill="#aa0a08" />
  <path d="M514.8,211.5v90l-14.2-3c3,.3,6.6-.4,9.4,0s1.4,2.6,4.1,1.6v-85.5c0-.4-3.6-1.8-4.9-1.6s-.9,1.1-1.7,1.5-1.4-.1-2.2.3-.6,3.6-2.2-.2c-2.6-.8-2.5,1.4-3.1,1.5-2.3.5-5.7-.5-8,0-5.3,1.3-11.9,3.1-17.5,4.5s-5.7-.5-8,0-1.1,2.5-3.5,1.5v3s-3-3-3-3v4.5c-.5,0-1,0-1.5,0-.6-2.3.5-4.4.7-6l55.5-9Z" fill="#f8bd11" />
  <path d="M299,513.8c0,.5,0,1,0,1.5h-83.2v-.8c27,0,54,0,80.9,0-.1-3.7.2-7.5,0-11.3,1.1,3.2,1.8,7.1,2.2,10.5Z" fill="#aa0a07" />
  <path d="M391.2,514.5l.7.8h-92.9c0-.5,0-1,0-1.5,1.2.9,2.7.7,4.1.8,29.3,1,58.8-.8,88.1,0Z" fill="#fefdb2" />
  <path d="M215.8,514.5v.8h-92.2v-.8c30.7,0,61.5,0,92.2,0Z" fill="#fefdb2" />
  <path d="M289.2,154.5c6.9-.5,23.7-.8,30,.8s2.5.4,3,.8,3.1,3.5,4,4.3,1.7,0,1.9.3.2,6.7.1,7.8c-.4,5.2-4.7,11.1-6.6,15.9-.5,1.5-.3,3.6-1,5.4-3,8.1-6.2,15.5-9.3,22.5s-2.1,6.5-2.7,9.2c-.3.9-1.2.4-1.5.5-3.8,2.2-3.2,2.2-3,7.5h42c.2-2,0-1.4-1.5-1.5-.5-4.8.4-8.5,2.2-12.8s4-9.5,7-14,8.3-10.6,11.9-13.5,2,0,2.5-.5c4.2-3.3,8.3-7.1,13.5-9.3,10.4-4.4,24.7-5.5,36.2-5.4v1.5c3.7-.3,6.9.2,10.5.8s.5,0,.7,0c20.4,4.5,33.6,24,30,45.8-.3,1.6-1.4,3.7-.7,6-.5,0-1,0-1.5,0,1.1,3-1,4.1-1.2,4.8-2.3,5.6-9,13.8-14,17.5s-1.9,0-2.5.5-1.6,2.4-1.9,2.5c-3.9,1.6-10.4,3.5-14.8,4s-8.4.6-12,.8c-7,.3-14-.3-21,0v3c.5,0,1,0,1.5,0s1-.2,1.4,0c-.8,5.7,5.9,6.8,7.3,9.2,3.9,6.4,9.4,11,13,16.3s2.9,6.6,4,8.7c4.3,8.4,8.3,17.1,9.5,27.3.1,1,0,2,0,3-2.6,0-2.1-.5-2.2,1.8-.4,4.8.6,10.6,0,15.1s-1.4.7-1.6,2.1-.3,4,.8,4.9c-.9,3.3-3.1,9.8-4.5,12.9s-4.9,5-5.2,5.6c-.6,1.3-.5,3-.9,3.8s-13.4,12.9-14.3,13.5-4.7,1.5-5.5,2c-1.4.8-1.9,2-4.7,3.5-6.1,3.1-12.6,6.2-19.5,6.8s-6.3-.1-9.4,0-3-.8-2.6,1.5c-6.5,0-13.1,0-19.5-.8s-3.5-.2-6-.8c-4.6-1-12-3.4-15.9-6s-2.7-3.4-3.8-4.2c-6.9-5.3-10.2-7.1-15-15s-3-1.6-3.5-2.3c-2.2-3-6.5-22.5-6.8-26.8-.4-7.2,1.1-14.3.5-21.5-1-1.4-16.2-.5-19.2-.7-4.2-.2-7.2-1.1-11.2-1.5-1.5-1.2-4.7-2.8-6-4.5s.3-1.2,0-1.4c-1.3-.9-1.7,1.6-3.7-2.3s-2.9-10.2-2.3-14.7,1.2-.8,1.6-2.2c.7-2.3.8-5.1.6-7.5l2.2-.5c.2-2.3.2-4.7.9-6.9s.9-.7,1.4-2.1c2-4.7,6.9-10.8,6-15.8,1.8-1,2.7-.3,2.3-3.7-3.5,0-7,0-10.5,0-7.8,0-15.7,0-23.5,0-.9.2-.3,1.2-.5,1.5-.7,1.3-1.5,2.5-2.2,3.8-2,3.4-2.5,5.1-4,8.4s-3.2,1.7-2,5.1c-4,1.5-2.8,3.2-4,5-4.8,7.1-9.2,14.7-13.3,22.1s-6.9,10.3-7.4,14.1c-.8-.3-2.4,1.3-2.7,1.7-1.3,2-1.7,6-2.5,8s-4.1,5.1-5.2,6.8c-9.5,13.3-17.4,25.4-32,34.5-2.6,1.6-4.9,1.2-6.9,3.8-2.4-.8-4.2,1.8-4.7,2-1.4.6-3.6-.4-4.3,1.7-.7,0-1.5,0-2.2,0-3.7,0-7.5,0-11.2,0v1.5c-3.7,0-8.4.4-12,0s-5.4-2-8-2.9c-8.7-2.9-17-7.3-22.7-14.1s-5-6.4-7.7-10.2-1-2.1-2.8-2.1c.2-.3-.1-1.1,0-1.5,1.7-5.9-.5-4.5-.7-5.8-.5-2.5-1.4-4-1.5-4.5-.5-2,1.5-7.4-2.3-4.7-.1-.4-.7-2.2-.7-2.2,0-8.1-.4-16,.7-24s2.1-9.6,3.7-14.2,2.1-4.2,2.4-6.7l2-.2c-.5-2.6,1-2.6,1.5-3.5,3-5.8,6.9-11,11.3-16.6,1.6,1.1,1.3.9,2.4,0,2.3-1.9,4.2-4.9,5.8-6.7,6.8-7.4,28-18.6,38-20.9s2.9.7,2.5-1.6c4.5-.5,9.1-1.6,13.5-2.2s3.8.3,5.6,0l6.4-3c2.5-.1,5,0,7.5,0l36,.8c.6.2,1.7-.2,2.5,0s.1,2.2,2,1.5c1.5-2,1.1-2.4,1.5-4.5.8-4.4,1.6-2.7,3-6,.8.3,2.4-1.3,2.7-1.7,1.4-2.2,1.3-4.9,1.8-7.3.8-4.1,7.8-11.8,9.2-16.3,3.2,0,1.6-1.4,2-2.4,1.6-3.4,8.8-8.3,9.5-10s0-2.6.2-2.8,1.8.2,2.8-.2,5.4-6.6,6.2-7.3c2-1.7,5.7-2.2,6-4.5,2.2-.9,7.4-2.4,7.5-4.5,5.4-1.6,9.9-3.6,15.7-5.2s10.4-3.3,15.7-3.8ZM286.2,185.2c-3.1-.7-5.5,1.1-8.2,1.9-7.6,2.3-6,2.8-11.3,7.1s-2,.4-2.7,1c-2.9,2.6-4.1,5.3-6.3,8.1s-6.2,5.6-6.7,9.6c-2.5,0-2.9,3.8-3.8,5.5-1.5,2.7-3.8,5.6-5.2,8.8s-1.2,1-.7,2.2h29.5c1-.2.2-1.7.4-2.2,4.2-11.2,10.4-21.9,13.5-33.8,4.3.7,2.9-1.3,3-4.5h3s0-6,0-6c-2.1.3-5.3-1.4-4.5,2.3ZM424.1,204.8c-.2-.3.3-1.9,0-2.2s-1.8.2-2.3-.1-.6-1.3-1.1-1.4c-2.9-.7-7.8,1.6-8.9-1.5-1.7-.4-.8,1.3-1.6,1.5-1.6.4-5.4,0-7.4,0s-3-.8-2.6,1.5c-10.2,2.3-18.8,11.2-24,19.5s-1.1-.4-1.5.5c-.8,1.9.1,4.9,0,7,12.6-.7,26.2,1,38.6,0s1.9.4,1.8-2.3c2.6-.4,5.4-1.3,7.7-2.4s3.8-4.1,6.3-6c-.6-3.5.7-6.2-.7-9.8s-3.8-3.2-4.4-4.4ZM158.9,258c-1.7,0-3.8-.6-4.5,1.5-2.5.1-5,.4-7.5.8s-3.3-.1-5.3.3-5.8,1.9-5.2,3.4c-8.6,1.8-21.4,10.9-27,17.2s-5.2,6-7.4,10.2-7.2,12.5-7.6,18.7c-.6,9.9-.7,15,5.3,22.9s1.4,1.1,2.2,2c3.6,3.8,5,6.7,10.5,7.7,0,2.6-.5,2.1,1.8,2.3s7.3.3,9.8,0,2.6-.3,2.6-2.3c1.4-.2,3.5-.5,4.7-.8s.5-1,1.2-1.4,1.5,0,2.1-.3,13.3-12.9,13.7-13.8c1.9-3.7,3.6-7.6,5.5-11.2s3.2-2.2,3.8-3.3c.9-1.5,1.8-5.5,1.9-7.5.9-.4,1.9-1.2,2.8-1.7,5.7-11,12-21.8,18.2-32.8s4.1-5.7,5.2-8.1,0-1.7,0-2.4c.5-.1,1,0,1.5,0s1,0,1.5,0v-3c-9.1.2-18.3-.3-27.4,0s-3-.8-2.6,1.5ZM293.7,258c-.7,1.6-1.5,3-2.2,4.5-1.4,3-2.5,6-3.7,9s-3,7.9-4.5,11.2-1.3,4.1-3,5.2-1-.2-1.5,0c-.9,4.2,3.6,5.4,7,4.5s-.1-1.9,1.6-1.5c.1,1.7,3.7,2.8,3.4,0,.2,0,.5,0,.7,0,3.6,0,7.1,0,10.7,0,1-1,2.4-2.2,3.5-3,2.1-1.5,5-3.3,6-6l11-8.2c3.4-1.5,6.5-2.5,10-3.8s2.2-.7,2.2-.8c2.6,1.3,6.4.8,9.5.8s2.4-.8,2.5-.8c2.3,0,6.4,3.3,7.5,5.2,2.3,4,2.5,6.1,1.5,10.5s-.7,3.1-2.3,5.4-7.8,6.8-9.7,8.1-1.2-.3-1.7,0c-8.1,5.5-11.8,7.8-17.3,16.2s-2.6,1.6-2.7,2.3c-.2,1.1.2,3.6,0,3.9s-.3-.1-1.5,1.5c-1.7,2.3-2.6,2-3,6-2.3-.4-1.5,1.1-1.5,2.6,0,2.8-.4,7.3,0,9.8s1.4,1,1.5,1.6c.5,2.2-1.6,6.3,2.3,5.5,1.1,3.9,7.2,11.2,10.7,13.7s3.1.2,3.6,2.8-.1,1,0,1.5c2.4-1,3.2,1.4,3.5,1.5,2.2.5,5.2,1.4,7,1.5,4.3.2,10.4.3,14.6,0s1.9.4,1.8-2.3c1.5-.3,2.9-.9,4.5-.8l10.3-4.7c1.6-3.2,9.4-8.3,10.7-10.8,2-3.8,2.8-6.7,3.8-10.9s2-1.7,2.2-7.3c2.9-2,1.4-8.2.7-11.2-1.4-6.4-4.2-14.8-7.9-20.2s-3.5-2.3-4.8-4.1c-5.8-7.7-11.7-14.7-18-22.1s-6.5-7.8-9.1-12.9-2.3-1-1.4-3.6l-1.1,1.5c-.8,0-.2-1-.4-1.5-.3-1.1.8-1.8-1.5-1.5h-55c-.9.1-.3,1.1-.5,1.5Z" fill="#00fefe" />
  <path d="M3,133.5l-1.6-2.6V11.6s1.6-1.4,1.6-1.4c.4-1.7-1.3-.8-1.5-1.6-1.1-4,2.2-3.5.8-6.3.5-.5,9.8,8.9,10.7,9.8,3.2,3.2,7.2,7.2,10.5,10.5s9.1,8.6,9.3,9.2c.5,1.1,0,2.4.2,2.8s1.2-.6,2-.2c2.2.8,3,4,2.5,6.2,3.4-1.6,5,1.1,7.2,3.3s.2,1.4.5,1.7c.5.5,3.6,1.7,4.1,2.7s0,2.4.2,2.8,1.2-.7,2.4,0,4,4.1,4.7,4.8c4.3,4.3,8.4,9.4,12.7,13.9s5.1,1.6,4.1,5.3l1.5-1.5c.1,2.5,5.3,3.9,3.7,6h2.2c-1,4.6,3,1.8,4.5,5.1s-1.5,2.9,3,2.4l58.4,57.8c2.7,3.4,6.4,7.3,9.4,10.4,18.4,19.1,38.6,36.7,56.5,56.3l-1.6,5.4c-2.2,1.1-1,2.7-1.4,3.6-1.4,3.3-2.2,1.6-3,6h-1c-1,2.5-4.6,1.4-7.2,1.5-1-1.2-3.8-2.3-5.2-2.2-38.8-19.6-78.2-38-117.4-56.9-24.1-11.6-48.5-23.9-72.9-35.4Z" fill="#febf00" />
  <path d="M88.4,85.5c19.2,19,41.6,38.5,58.4,59.2l-58.4-57.8v-1.5Z" fill="#b52403" />
  <path d="M214.3,211.5c-.4,2.3-.3,5.1-1.8,7.3s-1.9,2-2.7,1.7c.4-.9-.8-2.6,1.4-3.6l1.6-5.4h1.5Z" fill="#1cf7df" />
  <path d="M133.4,18c-3.8-1.3-5.1-5.3-4.5-9,1.6,3,3,6,4.5,9Z" fill="#b31302" />
  <path d="M508,4.5l4-1.5c2.1,1.7,3.6,5.3.5,6.4-.4,1.7,2.4.5,1.5,3.6s-1.4.2-1.6,1.6c-.4,2.9-.5,6.3,1.6,8.3-2.9,30,3.7,67,0,96.1-.2,1.4-1.4.7-1.6,2.1-.4,3.1.6,7.4,0,10.4s-3.4,1.8-3,3.5c-9.4,4.6-19,8.9-28.5,13.5-1.5,0-2.9-.3-4.3.3s-3.8,2.1-6,3-10.6,5.2-12.2,7.2-22.4,11-27.3,13.6-2.4.3-2,2.1c-.2,0-.5,0-.7,0v-2.3c-3.5,0-7,0-10.5,0-11.4,0-25.7,1-36.2,5.4s-9.3,6.1-13.5,9.3-2,0-2.5.5c-3.6,2.9-9.5,10-11.9,13.5s-4.9,9.2-7,14c-.7-1.3-2.7-.8-3.8-.4-5.4,1.8-15.9,7.4-21.2,10.3s-2.4.3-2,2.1c-2.1,0-12.6,1.7-13.5.7l.8-6c.2-.1,1.1.3,1.5-.5.6-2.7,1.6-6.7,2.7-9.2,3.1-7.1,6.3-14.4,9.3-22.5,5.9-.3,9.5-7.3,13.5-11.2,21.1-20.9,41.8-41.4,62.6-62.2,5.8-5.8,12-11.4,17.6-17.3,1.8.5,1.8-.5,2.6-1.1,3.2-2.6,4-5.2,5.6-7.1,11.1-13.4,26.6-26.7,39-39.4,15.2-15.5,30.2-32,46.4-46.9Z" fill="#febf00" />
  <path d="M322.2,156l2.6-2.2c1.7.7,1.5,3,2,3.6s1.1-.4,1.4-.2c1.3.8,1.2,6,1.5,7.3s1.4-.1,1.6,2.4-1.4,2.5-1.6,3.1c-.7,2.5,2,2.5,1.8,5.3l2.7,3.3c-4,3.9-7.5,10.9-13.5,11.2.7-1.8.4-4,1-5.4,1.8-4.9,6.2-10.7,6.6-15.9s.1-7.5-.1-7.8-1.4,0-1.9-.3c-.9-.8-3.3-3.8-4-4.3Z" fill="#b70505" />
  <path d="M311.7,153c0,0,.9.7,1.8.8,1.9.2,3.8-.2,5.7,0v1.5c-6.2-1.5-23.1-1.3-30-.8-.4-2.3,1.1-1.4,2.6-1.5,6.1-.2,13.9-.4,19.9,0Z" fill="#aad65a" />
  <path d="M422.6,90.8c-1.6,2-2.5,4.6-5.6,7.1s-.8,1.7-2.6,1.1c2.7-2.9,3.6-6.9,8.2-8.2Z" fill="#fdab27" />
  <path d="M388.2,389.2l3,1.9c38.8,41.6,83.4,79.8,121.4,121.9.4,2.3-1.1,1.4-2.6,1.5-38.4,1.5-77.7-1.2-116.2,0l-2.6-1.6c-14.6-26.3-28-53.3-41.8-80-5.5-10.7-12.7-21.8-17.3-32.9-.6-1.4-1.1-2.5-.8-4,2.5.6,3.6.5,6,.8,0,2,.9,2.1,2.6,2.3,2.6.3,23.4.7,24.4,0s-.2-1.3,0-1.5c.5-.7,3.6-.5,4.5-1.5,6.9-.5,13.4-3.6,19.5-6.8Z" fill="#bf0000" />
  <path d="M426.4,321c2.6,0,2.1-.5,2.2,1.8.3,4.1-.5,8.9,0,12.8s2.3,1.1,1.6,3.3c-1-.5-3.3-.3-4.5-1.5.4-4.5,1-9,.7-13.5s.1-2,0-3Z" fill="#af0906" />
  <path d="M426.4,324c.3,4.5-.3,9-.7,13.5s.4,3.9,0,5.5-1.7,3-2.2,5c-1.1-.9-1-3.7-.8-4.9s1.4-.7,1.6-2.1c.6-4.5-.4-10.3,0-15.1s-.4-1.9,2.2-1.8Z" fill="#13f8e5" />
  <path d="M250.3,264h1.5s0,3,0,3c-1.6,2.9-2.9,6.1-4.5,9-4.7,9-11.8,20.7-15,30-3.3,4-5.1,9-7.5,13.5-13.5,25.9-27,51.8-40.3,77.8-.3,1-.9,1.2-1.6,1.7-2.5,1.7-.6.7-1.7,2.8s-4.1,3.2-4.2,3.8c-.3,1.7.1,3.7,0,5.5-14.9,29.1-29.5,58.5-44.8,87.5-2.9,5.4-5.4,8.3-7.6,14.5l-2.6,1.6c-38.5-1.2-77.8,1.5-116.2,0-1.4,0-3,.8-2.6-1.5,2.8-2.9,5.4-6.1,8.2-9,35-35.1,69.5-69.7,104.6-105,1.4-1.4,1.6-2.9,3.4-4.5l3.7,1.5c0-1-.2-1.9.2-2.8s5.6-5.8,6-6c.9-.4,1.9-.2,2.8-.2l-1.5-3h4.5c-1.1-3.3,3-4.3,4.3-6.2s0-1.8.2-2c.8-1.2,2.3-3.6,3-4.5,2-2.6,4.4-2.2,6.9-3.8,14.7-9.1,22.6-21.2,32-34.5l4.5,1.5c-.1-3.2,2.6-4.2,1.5-8.3,3.4-.4,5-4.9,6.7-6.8,15.4-16.1,31.8-31.8,47.5-47.7,2.3-2.4,6.6-5.2,8.7-7.8Z" fill="#bf0000" />
  <path d="M139.4,375.8c-.1.2.3,1.3-.2,2-1.3,1.9-5.3,2.9-4.3,6.2h-4.5s1.5,3,1.5,3c-1,0-1.9-.2-2.8.2s-5.8,5.6-6,6c-.4.9-.2,1.9-.2,2.8l-3.7-1.5c4.6-4.3,9.5-8.6,13.9-12.7s4-3.8,5.6-6h.7Z" fill="#b30e02" />
  <path d="M119.9,376.5c2,0,4,0,6,0,.4,2.3-1.1,1.4-2.6,1.5-4.1.2-8.7.1-12.8,0s-3,.8-2.6-1.5c3.6.4,8.3,0,12,0Z" fill="#dfc72e" />
  <path d="M142.4,371.2c-.7.9-2.2,3.3-3,4.5h-.7c-1.6-1-3.5-.7-5.2-.8.7-2.1,2.8-1.1,4.3-1.7s2.3-2.8,4.7-2Z" fill="#d5bb3b" />
  <path d="M131.1,375c-.8,2.2-3.4,1.4-5.2,1.5s-4,0-6,0v-1.5c3.7,0,7.5,0,11.2,0Z" fill="#6be295" />
  <path d="M284.7,84c.6-5.5-.4-11.5,3-16.5-.9,5.5-.7,11.3-3,16.5Z" fill="#b81605" />
  <path d="M257.8,163.5c0,2.1-5.3,3.6-7.5,4.5.1-1,0-2,0-3,3.1,1.3,4.6-1.4,5-1.5.8-.2,1.9.1,2.5,0Z" fill="#8f1a1b" />
  <path d="M197.8,228c.7.4,2.3,1.3,3,1.5l-36-.8c5-.2,10,.2,15,0s11.9-.6,18-.8Z" fill="#8ec1c1" />
  <path d="M198.6,228c-.2,0-.5,0-.7,0-6,.1-12,.6-18,.8,0-2.6-.5-2.1,1.8-2.3,3.3-.3,8.8-.7,11.7-.7s4.2,1.1,5.2,2.2Z" fill="#7b3f06" />
  <path d="M157.4,228.8l-6.4,3c-1.8.3-3.9-.2-5.6,0,0-2.6-.5-2.1,1.8-2.3,3.3-.3,7-.6,10.2-.7Z" fill="#95120d" />
  <path d="M18,213c2.9.2,3.8,1.2,7.9,1.5s3-.8,2.6,1.5c-5.3-.9-11.4-.9-16.5-3,2,.2,4-.1,6,0Z" fill="#b50f02" />
  <path d="M91.4,256.5c-1.7,1.8-3.5,4.8-5.8,6.7s-.8,1.2-2.4,0c1.8-2.3,4.6-7.3,8.2-6.8Z" fill="#b5d14c" />
  <path d="M458.6,226.5c.5,0,1,0,1.5,0v-4.5s3,3,3,3v-3c2.4,1,3.2-1.4,3.5-1.5,2.2-.6,5.7.5,8,0,5.6-1.3,12.2-3.2,17.5-4.5s5.7.5,8,0,.4-2.3,3.1-1.5c1.6,3.8,1.9.4,2.2.2.8-.4,1.8,0,2.2-.3.8-.4.4-1.3,1.7-1.5s4.9,1.2,4.9,1.6v85.5c-2.7,1-2.8-1.4-4.1-1.6-2.8-.4-6.5.4-9.4,0-2.9-.9-6-1-9-1.5.4-2.3-1.1-1.4-2.6-1.5-4.5-.2-4.3-1.2-5.4-1.5-2.2-.5-5.9.2-8.5,0-17.5-1.4-35.5-6.4-52.9-8.9-2.4-.4-7-1.1-9.3,0-3.6-5.2-9.1-9.8-13-16.3s-8.1-3.5-7.3-9.2c-.4-.3-1,0-1.4,0-.4-2.3,1.1-1.4,2.6-1.5,5.6-.2,11.3,0,16.9,0s6.9.3,10.2,0,1.9.4,1.8-2.3c4.4-.5,10.9-2.4,14.8-4s1.4-2.2,1.9-2.5,2,0,2.5-.5c5-3.8,11.7-11.9,14-17.5.3-.6,2.4-1.7,1.2-4.8.5,0,1,0,1.5,0Z" fill="#febf00" />
  <path d="M475.1,294c2.5.2,6.3-.5,8.5,0s.9,1.3,5.4,1.5,3-.8,2.6,1.5c-5.4-.9-11.3-.9-16.5-3Z" fill="#faaa1c" />
  <path d="M481.1,148.5c-7.3,3.5-14.7,8.1-22.5,10.5,1.7-2,9.2-6,12.2-7.2s4.8-2.5,6-3,2.8-.2,4.3-.3Z" fill="#faab16" />
  <path d="M62.2,304.5c-1.2,8-.7,15.9-.7,24-.2-.2-1.4.2-1.5,0-.7-.9-.2-19.5,0-22.2s-.4-1.9,2.2-1.8Z" fill="#901c1b" />
  <path d="M62.2,330.8c3.7-2.6,1.8,2.7,2.3,4.7s.9,2,1.5,4.5,2.4-.1.7,5.8c-3.8-4.6-3-10-4.5-15Z" fill="#20f2e7" />
  <path d="M267.5,319.5c2.9.2,18.2-.7,19.2.7.7,7.2-.9,14.2-.5,21.5s4.6,23.8,6.8,26.8,2.7,1,3.5,2.3c4.8,7.9,8.1,9.7,15,15s2.7,3.5,3.8,4.2c3.9,2.6,11.3,5,15.9,6-.2,1.5.3,2.7.8,4,4.6,11.2,11.7,22.3,17.3,32.9,13.9,26.7,27.2,53.7,41.8,80v1.5c-29.3-.8-58.8,1.1-88.1,0-1.4,0-2.8,0-4.1-.8-.5-3.4-1.2-7.3-2.2-10.5-1.3-25.7-9.9-53.4-12-79.5-.2-2.7.5-6.9,0-9.2s-1.3-.5-1.5-1c-.7-3.1,1-2.9-1.5-6.2-.8-5.5-1.5-11.2-3-16.5-1.4-17.9-6.3-53-11.2-69.8s0-1,0-1.5Z" fill="#febf00" />
  <path d="M251,276c-.6,1.4-1.4,1.9-1.4,2.1-.7,2.2-.7,4.6-.9,6.9l-2.2.5c.1,2.4,0,5.2-.6,7.5s-1.5.9-1.6,2.2c-.6,4.4.3,10.6,2.3,14.7-2.1,3.9.3,10.6-.9,14.5s-2.7,1.7-2.9,2.5-.2,6.2,0,7.2,2,.5,1.5,2c-9.9,59.2-18.6,119.1-28.5,178.5-30.7,0-61.5,0-92.2,0,.2-.5.6-1,.7-1.5,2.3-6.2,4.8-9.1,7.6-14.5,15.3-29,29.9-58.4,44.8-87.5,2-3.9,5.3-7.5,6-12,.7-.5,1.3-.7,1.6-1.7,13.3-26,26.8-51.9,40.3-77.8.8.3,2.4-1.3,2.7-1.7,2.7-4.2,3.3-7.4,4.8-11.8,3.2-9.3,10.2-21,15-30h3.7ZM242.8,315c-2.7-.6-1.2,3.9-1.5,5.5l3,3.5c1-4.1-2.5-4.9-1.5-9Z" fill="#febf00" />
  <path d="M250.3,313.5c1.3,1.7,4.5,3.3,6,4.5s-.2,1.1.1,1.3c.7.6,2.7,0,3.9.2s.5,1.3,1,1.5c1.5.3,3.4-.2,5,0s1.1,3.5,1.2,0c4.9,16.8,9.8,51.8,11.2,69.8.2,2.9-.6,7.5,0,10s1.3.5,1.5,1c.6,2.9-.9,2.4,1.5,5.5.8,5.5,1.2,11.2,3,16.5,2.1,26.1,10.7,53.8,12,79.5.2,3.7-.1,7.5,0,11.3-27,0-54,0-80.9,0,9.9-59.4,18.6-119.3,28.5-178.5,1-5.9,2.2-16.1,3.8-21.3s.6-2.4,2.2-1.2Z" fill="#bf0000" />
  <path d="M180.6,270c-6.2,11-12.5,21.7-18.2,32.8-.9.5-1.9,1.3-2.8,1.7-1.9.8-4.7,1.3-7,2.4-17.8,8.4-35.5,17.1-52.9,26.1-5.9-7.9-5.9-13-5.3-22.9s4.6-13.1,7.6-18.7,3.9-6.2,7.4-10.2c1.3.9,2.4.8,3.9.6,22.5-2.8,44.8-8.9,67.3-11.8Z" fill="#bf0000" />
  <path d="M343.9,298.5c16.1,6.1,31.4,16,47.2,22.5,2.2,3.2,1.7,7.4,1.5,11.2-.2,5.6-1.8,5.7-2.2,7.3-1,4.2-1.8,7.1-3.8,10.9s-9.1,7.5-10.7,10.8l-10.3,4.7-43.5-45c.2-.3-.2-2.9,0-3.9s2.3-1.6,2.7-2.3c5.5-8.4,9.2-10.7,17.3-16.2s1.5.1,1.7,0Z" fill="#febf00" />
  <path d="M424.1,204.8c.6,1.1,4.1,3.5,4.4,4.4,1.4,3.6,0,6.3.7,9.8-2.5,1.9-3.2,4.4-6.3,6s-5.2,2-7.7,2.4c-12.3,2.1-26.4,0-39,.8v-6c5.2-8.3,13.8-17.2,24-19.5s11.3-1.1,13.9-.8,6.9,2.9,10.1,3Z" fill="#be0102" />
  <path d="M322.2,321l43.5,45c-1.6-.2-3,.5-4.5.8-5.6,1.1-9.3,1.2-15,1.5l-12-3.8c-.5-2.5-1.5-1.2-3.6-2.8-3.5-2.5-9.6-9.8-10.7-13.7s-.5-3-.7-4.5c.5-4.3-.6-9.7,0-13.9s1.4-1,1.5-1.6c.4-1.6-.2-3.8,0-5.5,1.2-1.6,1.4-1.4,1.5-1.5Z" fill="#bf0000" />
  <path d="M159.6,304.5c-.1,1.9-1,5.9-1.9,7.5s-3.4,2.4-3.8,3.3c-1.9,3.7-3.6,7.6-5.5,11.2s-12.9,13.3-13.7,13.8-1.6,0-2.1.3-.6,1.2-1.2,1.4c-1.1.3-3.3.6-4.7.8-5,.9-9.2.9-14.2,0s-6.9-3.9-10.5-7.7-.8-.1-2.2-2c17.4-9.1,35.2-17.7,52.9-26.1s5.1-1.5,7-2.4Z" fill="#fdbf01" />
  <path d="M358.2,274.5c1.4.2,3-.1,4.5,0,6.3,7.5,12.2,14.4,18,22.1,1.4,1.8,3.8,2.6,4.8,4.1,3.7,5.5,6.5,13.8,7.9,20.2l-.4.7c-.7,0-1.2-.4-1.8-.7-15.8-6.5-31.1-16.4-47.2-22.5,1.9-1.3,8.6-6.5,9.7-8.1s1.7-2.8,2.3-5.4c2.6,0,2.1.5,2.2-1.8s.3-4,0-5.2-4.1-3.2,0-3.5Z" fill="#bf0000" />
  <path d="M167.9,258c5.6,0,11.3-.2,16.9,0s3-.8,2.6,1.5c-.5,0-1-.1-1.5,0-.1.7.2,1.8,0,2.4-1.1,2.4-4,5.9-5.2,8.1-22.5,2.9-44.8,9-67.3,11.8s-2.6.3-3.9-.6c5.5-6.3,18.4-15.5,27-17.2s4.1-1.3,5-1.5c2.2-.5,6.3,1.6,5.5-2.3,2.5-.3,5-.6,7.5-.8,3.6-.2,7.3.1,10.9,0s3,.8,2.6-1.5Z" fill="#fdbf02" />
  <path d="M250.3,264c-2.1,2.5-6.4,5.4-8.7,7.8-15.7,15.9-32,31.6-47.5,47.7h-2.2c0-1-.1-2,0-3,.5-3.9,5.6-10.9,7.4-14.1,4.1-7.4,8.6-15,13.3-22.1,1.2-1.8,0-3.5,4-5,11-4,21.2-9.9,32.2-14.2.7-.3,1.9-.3,3-.8.1,1.5-.6,2.7-1.5,3.8Z" fill="#fdbf02" />
  <path d="M299.7,258h51c.1.5-.4,1.5.4,1.5l1.1-1.5c-.9,2.6.9,2.6,1.4,3.6,2.6,5.1,5.3,8.4,9.1,12.9-1.5-.1-3.1.2-4.5,0s-2.7-2-3.7,0c-1.1-1.9-5.2-5.3-7.5-5.2v-.8c-1.8-3-7.1-.9-10.2-1.5-1.7-.3-.9,1.3-1.1,1.5s-.5.6-.7.8-1.7.5-2.2.8l-41.2-7.5c.7-1.5,1.6-2.9,2.2-4.5h6Z" fill="#fcc001" />
  <path d="M286.2,185.2c3.7.9.2,2.6,0,2.8-2.1,3.1-1.1,3.8-1.5,5.5-3.1,11.8-9.3,22.6-13.5,33.8-3,.1-6-.2-9,0l4.5-33c5.2-4.3,3.7-4.8,11.3-7.1,2.7-.8,5.1-2.7,8.2-1.9Z" fill="#fcc002" />
  <path d="M332.7,270c-3.5,1.3-6.6,2.4-10,3.8l-11,8.2c-.7.1-1.7-.2-2.2,0l-21.7-10.5c1.3-3,2.4-6,3.7-9l41.2,7.5Z" fill="#be0102" />
  <path d="M262.3,227.2c-2.8.2-5.9.7-9,.8-1-4.2-2.8-10.7-2.2-15s4.5-6.7,6.7-9.6,3.4-5.5,6.3-8.1,2.1-.6,2.7-1l-4.5,33Z" fill="#bd0303" />
  <path d="M309.5,282c-.9.3-5,4.6-3.7,6-1.1.8-2.6,2-3.5,3-3.6,0-7.1,0-10.7,0l-8.2-8.2c1.5-3.4,2.9-7.4,4.5-11.2l21.7,10.5Z" fill="#fbbf03" />
  <path d="M242.8,259.5c2,0,4,0,6,0v1.5c-11,4.4-21.2,10.2-32.2,14.2-1.1-3.5,1.3-3.6,2-5.1,1.4-3.3,2-5,4-8.4,1.3,1,2.3.6,3.8.4,5.5-.8,10.9-2.5,16.5-2.7Z" fill="#bd0303" />
  <path d="M346.9,215.2c-1.9,4.3-2.7,8-2.2,12.8-6.3-.6-14.1,0-20.6,0s-3-.8-4.1-.8c-.4-1.8.9-1.6,2-2.1,5.3-2.9,15.9-8.5,21.2-10.3s3.1-.9,3.8.4Z" fill="#b50c0c" />
  <path d="M251,213c-.5,4.3,1.3,10.8,2.2,15-3.5,0-8.2.6-11.2-.8,1.4-3.2,3.7-6.1,5.2-8.8s1.2-5.5,3.8-5.5Z" fill="#efc013" />
  <path d="M307.2,222l-.8,6c.9.9,11.4-.8,13.5-.7s2.6.8,4.1.8c6.6,0,14.3-.6,20.6,0s1.7-.5,1.5,1.5h-42c-.2-5.2-.8-5.3,3-7.5Z" fill="#22f4de" />
  <path d="M376.2,222v6c12.5-.8,26.6,1.3,39-.8,0,2.6.5,2.1-1.8,2.3-12.4,1-26.1-.7-38.6,0,.1-2.1-.8-5,0-7s1.5-.5,1.5-.5Z" fill="#1de8e6" />
  <path d="M247.3,258c-.7,0-3.7,1-4.5,1.5-5.6.2-11,1.9-16.5,2.7s-2.5.6-3.8-.4c.7-1.2,1.6-2.5,2.2-3.8,6.8-.8,16.1,1.1,22.5,0Z" fill="#fab908" />
  <path d="M246.5,309.8c2,3.9,2.3,1.4,3.7,2.3s0,1.3,0,1.4c-1.6-1.3-1.8-.3-2.2,1.2-1.6,5.2-2.8,15.4-3.8,21.3.5-1.5-1.3-1.4-1.5-2-.2-1-.3-6.3,0-7.2s2.4-.8,2.9-2.5c1.2-3.9-1.2-10.6.9-14.5Z" fill="#faba0c" />
  <path d="M253.3,228c3.1,0,6.2-.6,9-.8s6,.1,9,0c-.2.6.5,2.1-.4,2.3h-29.5c-.5-1.3.5-1.7.7-2.3,3,1.3,7.7.8,11.2.8Z" fill="#36f0c6" />
  <path d="M257,260.2c.9,4.9-4,11-6,15.8h-3.7c1.6-2.9,2.9-6.1,4.5-9s2.3-5.1,5.2-6.8Z" fill="#e8b729" />
  <path d="M291.5,291c-.2,0-.5,0-.7,0-1.4,0-2.7-.7-4.1-.8s-6.9,2.5-6.4-2.2c1.7-1.2,2.2-3.4,3-5.2l8.2,8.2Z" fill="#9a211c" />
  <path d="M158.9,258c-.4-2.3,1.1-1.5,2.6-1.5,9.1-.3,18.3.2,27.4,0v3c-.5,0-1,0-1.5,0,.4-2.3-1.1-1.5-2.6-1.5-5.6-.2-11.3,0-16.9,0s-6-.2-9,0Z" fill="#3cf0bc" />
  <path d="M349.2,256.5l-49.5,1.5h-6c.2-.4-.5-1.4.5-1.5h55Z" fill="#79da76" />
  <path d="M356.7,397.5c2.5,0,5,0,7.5,0-.2.2.2,1.4,0,1.5-1,.7-21.8.3-24.4,0s-2.6-.3-2.6-2.3c6.4.7,13,.8,19.5.8Z" fill="#8a1415" />
  <path d="M349.2,256.5c2.3-.3,1.2.4,1.5,1.5h-51l49.5-1.5Z" fill="#84e483" />
  <path d="M286.2,185.2c-.8-3.6,2.4-1.9,4.5-2.3v6s-3,0-3,0c-.1,3.2,1.3,5.2-3,4.5.4-1.7-.6-2.4,1.5-5.5s3.7-1.9,0-2.8Z" fill="#0dfbf0" />
  <path d="M400.1,202.5c-.4-2.3,1.1-1.5,2.6-1.5s5.9.4,7.4,0-.1-1.9,1.6-1.5c1,3.1,6,.8,8.9,1.5s.4,1.1,1.1,1.4,1.9-.2,2.3.1-.1,1.8,0,2.2c-3.2-.1-7.1-2.6-10.1-3s-11.3.2-13.9.8Z" fill="#3bdeda" />
  <path d="M191.8,316.5c-.1,1,0,2,0,3h2.2c-1.8,1.8-3.3,6.4-6.7,6.7h-.7c.8-2,1.2-6,2.5-8s1.9-2,2.7-1.7Z" fill="#ebbc1f" />
  <path d="M248.8,256.5c-.4.3-1.2,1.4-1.5,1.5-6.4,1.1-15.7-.8-22.5,0,.2-.3-.5-1.4.5-1.5,7.8.1,15.7,0,23.5,0Z" fill="#8cd675" />
  <path d="M410.6,256.5v1.5c-5.6,0-11.3-.2-16.9,0s-3-.8-2.6,1.5c-.5,0-1,0-1.5,0v-3c7-.3,14,.3,21,0Z" fill="#39f1bd" />
  <path d="M320.7,322.5c-.2,1.7.4,3.9,0,5.5s-1.4.2-1.5,1.6c-.5,4.2.5,9.6,0,13.9-1-5.4-2.1-8.8-1.5-15s1.3-3.7,3-6Z" fill="#911519" />
  <path d="M317.7,328.5c-.6,6.2.5,9.6,1.5,15s.3,3,.7,4.5c-3.9.9-1.8-3.3-2.3-5.5s-1.4-.2-1.5-1.6c-.3-2.6,0-7,0-9.8s-.8-3,1.5-2.6Z" fill="#24eeee" />
  <path d="M422.6,255.8c0,2.6.5,2.1-1.8,2.3s-6.9,0-10.2,0v-1.5c3.6-.2,8.3-.4,12-.8Z" fill="#e3ca0f" />
  <path d="M126.6,342.8c0,2-.9,2.1-2.6,2.3-2.5.3-7.2.2-9.8,0s-1.9.4-1.8-2.3c5,.9,9.2.9,14.2,0Z" fill="#2bf2ce" />
  <path d="M187.3,326.2c1.1,4-1.6,5-1.5,8.3l-4.5-1.5c1.2-1.6,4.9-5.9,5.2-6.8h.7Z" fill="#b10c09" />
  <path d="M146.9,260.2c.9,3.9-3.3,1.7-5.5,2.3s-2.4.9-5,1.5c-.5-1.5,4.6-3.3,5.2-3.4,2-.5,3.5-.1,5.3-.3Z" fill="#c6d136" />
  <path d="M280.3,288c-.6,4.7,4.4,2.1,6.4,2.2s2.7.7,4.1.8c.4,2.8-3.3,1.7-3.4,0-1.7-.4-.8,1.3-1.6,1.5-3.4.9-7.8-.3-7-4.5.4-.2,1.3.1,1.5,0Z" fill="#1af3e8" />
  <path d="M248.8,256.5c3.5,0,7,0,10.5,0,.5,3.5-.5,2.8-2.3,3.7-.1-.7.1-1.5,0-2.2-.7,0-1.5,0-2.2,0-2.1-.2-5.4-.2-7.5,0,.3,0,1.1-1.2,1.5-1.5Z" fill="#85c29a" />
  <path d="M358.2,274.5c-4.2.3,0,3.3,0,3.5.3,1.2.1,3.8,0,5.2-.2,2.3.4,1.9-2.2,1.8,1-4.4.8-6.5-1.5-10.5,1-2,3.2,0,3.7,0Z" fill="#8a1b11" />
  <path d="M158.9,258c3-.2,6,0,9,0,.4,2.3-1.1,1.5-2.6,1.5-3.6.1-7.3-.2-10.9,0,.7-2.1,2.8-1.4,4.5-1.5Z" fill="#b7d548" />
  <path d="M361.2,366.8c0,2.6.5,2.1-1.8,2.3-4.3.3-10.3.2-14.6,0,.2-.7.9-.7,1.5-.8,5.7-.3,9.4-.4,15-1.5Z" fill="#95bec0" />
  <path d="M267.5,319.5c0,.5-.1,1.1,0,1.5-.1,3.5-.8,0-1.2,0-1.6-.2-3.5.3-5,0s-.4-1.4-1-1.5c-1.1-.3-3.2.4-3.9-.2s0-1.3-.1-1.3c4,.4,7.1,1.3,11.2,1.5Z" fill="#9c0d18" />
  <path d="M346.9,268.5v.8c-.1,0-1.2.8-2.5.8-3.1,0-6.9.5-9.5-.8.2-.2.6-.5.7-.8h11.2Z" fill="#5be59e" />
  <path d="M346.2,368.2c-.6,0-1.3,0-1.5.8-1.7,0-4.8-1-7-1.5s-1.1-2.5-3.5-1.5c-.1-.5,0-1,0-1.5l12,3.8Z" fill="#29edec" />
  <path d="M393.4,321c.7,3,2.1,9.3-.7,11.2.2-3.9.7-8.1-1.5-11.2.6.2,1.1.8,1.8.7l.4-.7Z" fill="#dbc825" />
  <path d="M418.1,172.5c3.5,0,7,0,10.5,0v2.3c-3.6-.6-6.8-1.1-10.5-.8v-1.5Z" fill="#a2d858" />
  <path d="M311.7,282c-.9,2.7-3.9,4.5-6,6-1.3-1.4,2.9-5.7,3.7-6s1.6.1,2.2,0Z" fill="#bfd03f" />
  <path d="M206.8,226.5c-.4,2.1,0,2.5-1.5,4.5-1.9.8-1.2-1.3-2-1.5s-1.9.2-2.5,0-2.3-1.1-3-1.5c.2,0,.5,0,.7,0,2.6,0,6.3,1,7.2-1.5h1Z" fill="#1bf6e4" />
  <path d="M368.7,396c-.9,1-4,.8-4.5,1.5-2.5,0-5,0-7.5,0-.4-2.3,1.1-1.4,2.6-1.5,3.1-.1,6.3.2,9.4,0Z" fill="#4cd7da" />
  <path d="M254.8,258c.7,0,1.5,0,2.2,0,.1.7-.1,1.6,0,2.2-3,1.6-3.5,3.7-5.2,6.8v-3s-1.5,0-1.5,0c.9-1.1,1.6-2.2,1.5-3.8,1.2-.5,2.4-1,3-2.2Z" fill="#ae2403" />
  <path d="M182.8,399c-.7,4.5-4,8.1-6,12,.2-1.7-.3-3.8,0-5.5s4-3.2,4.2-3.8c1.1-2.1-.8-1.1,1.7-2.8Z" fill="#b30f01" />
  <path d="M232.3,306c-1.5,4.3-2.1,7.5-4.8,11.8s-1.9,2-2.7,1.7c2.4-4.5,4.2-9.5,7.5-13.5Z" fill="#fbad16" />
  <path d="M281.8,407.2c2.6,3.3.8,3.2,1.5,6.2s1.3.5,1.5,1c.6,2.3-.2,6.5,0,9.2-1.8-5.3-2.2-11-3-16.5Z" fill="#f6a516" />
  <path d="M281.8,407.2c-2.4-3.1-.9-2.6-1.5-5.5s-1.3-.5-1.5-1c-.6-2.5.2-7.1,0-10,1.5,5.3,2.2,11,3,16.5Z" fill="#ba1405" />
  <path d="M242.8,315c-1,4.1,2.5,4.9,1.5,9l-3-3.5c.3-1.6-1.3-6.1,1.5-5.5Z" fill="#faba0c" />
  <path d="M254.8,258c-.6,1.3-1.8,1.8-3,2.2s-2.3.5-3,.8v-1.5c-2,0-4,0-6,0,.8-.5,3.8-1.4,4.5-1.5,2.1-.2,5.3-.2,7.5,0Z" fill="#af2704" />
  <path d="M346.9,268.5h-11.2c.2-.2-.6-1.8,1.1-1.5,3.1.7,8.3-1.4,10.2,1.5Z" fill="#d7cd25" />
</svg>