<?xml version="1.0" encoding="UTF-8"?>
<svg id="svg1" xmlns="http://www.w3.org/2000/svg" baseProfile="tiny-ps" version="1.2" viewBox="0 0 142 142" xml:space="preserve">
  <!-- Generator: Adobe Illustrator 29.2.1, SVG Export Plug-In . SVG Version: 2.1.0 Build 116)  -->
  <rect width="142" height="142" fill="#fff"/>
  <circle cx="71" cy="71.6" r="64" fill="#1c75bc" stroke="#1c75bc" stroke-miterlimit="10" stroke-width="12"/>
  <title>AS69</title>
  <g isolation="isolate">
    <g isolation="isolate">
      <text transform="translate(11 73.2) scale(.7 1)" fill="#fff200" font-family="Magneto-Bold, Magneto" font-size="72" font-weight="700" isolation="isolate"><tspan>AS</tspan></text>
    </g>
  </g>
  <g isolation="isolate">
    <g isolation="isolate">
      <text transform="translate(33.3 127.4) scale(.9 1)" fill="#f15a29" font-family="Magneto-Bold, Magneto" font-size="68.3" font-weight="700" isolation="isolate"><tspan>69</tspan></text>
    </g>
  </g>
  <circle cx="71" cy="70.6" r="64" fill="#1c5cee" stroke="#1c75bc" stroke-miterlimit="10" stroke-width="12"/>
  <g>
    <path d="M78.9,48.3c-.8,3.8-2.8,5.6-6,5.6h-14.5l-4.6,18.3h-8.8l4.6-18.3h-7.5c-8.2,14.2-16.3,21.4-24.1,21.4s-4.2-.6-5.8-1.8c-2-1.5-3-3.8-3-6.8s.7-5,2.2-7.5c2.4-3.9,6-6.8,10.8-8.7,3.8-1.5,7.9-2.2,12.4-2.2h4.8l14.8-25.6h11.8l-6.3,25.6h19.2ZM36.1,54c-6.1,0-10.4,1.3-12.9,3.8-2,2.1-3.1,4.3-3.1,6.7s.7,3,2.2,3,4.6-1.6,7.6-4.9c2.7-2.8,4.7-5.7,6.1-8.6h0ZM56.1,28.6l-10.7,19.7h5.5l5.3-19.7h0Z" fill="#fff"/>
    <path d="M121.1,31.3c0,2.3-.6,4.3-1.9,5.9-1.3,1.6-2.8,2.5-4.6,2.5s-3.3-.8-4.6-2.5c-1.3-1.6-1.9-3.6-1.9-5.9s0-1.2.2-2.1c-.7,0-1.2-.1-1.4-.1-2.5,0-3.7,1.5-3.7,4.5s.7,4.9,2.2,10.2,2.2,9.4,2.2,12.4c0,6.4-2.5,11.2-7.4,14.4-3.7,2.4-8,3.6-13,3.6s-8.5-.9-12-2.7c-4.9-2.5-7.4-6.4-7.4-11.7,0-7.6,4.5-11.5,13.6-11.5h9.3l1.8,5.6h-7.3c-1.8,0-3.4.5-4.8,1.4-1.8,1.2-2.6,3-2.6,5.3s1.2,4.7,3.6,6.2c1.9,1.1,3.9,1.7,6,1.7s5-.9,6.8-2.6c2.1-2,3.2-4.8,3.2-8.5s-.7-6.2-2-10.9-2-8.4-2-11c0-8.6,5.1-12.8,15.2-12.8h6c1.7,0,3.2.8,4.5,2.4,1.4,1.7,2,3.7,2,6.1h0Z" fill="#fff"/>
  </g>
  <g isolation="isolate">
    <g isolation="isolate">
      <text transform="translate(33.1 128.4) scale(.9 1)" fill="#f52929" font-family="Magneto-Bold, Magneto" font-size="68.3" font-weight="700" isolation="isolate"><tspan>69</tspan></text>
    </g>
  </g>
</svg>