<?xml version="1.0" encoding="UTF-8"?>
<svg id="Layer_1" xmlns="http://www.w3.org/2000/svg" baseProfile="tiny" version="1.2" viewBox="0 0 142 142">
  <!-- Generator: Adobe Illustrator 29.2.1, SVG Export Plug-In . SVG Version: 2.1.0 Build 116)  -->
  <circle cx="71" cy="71.6" r="64" fill="#1c75bc" stroke="#1c75bc" stroke-miterlimit="10" stroke-width="12"/>
  <text transform="translate(10.994 73.232) scale(.697 1)" fill="#fff200" font-family="Magneto-Bold, Magneto" font-size="72" font-weight="700" letter-spacing="-.1em"><tspan x="0" y="0">AS</tspan></text>
  <text transform="translate(33.286 127.43) scale(.878 1)" fill="#f15a29" font-family="Magneto-Bold, Magneto" font-size="68.324" font-weight="700" letter-spacing="-.1em"><tspan x="0" y="0">69</tspan></text>
  <circle cx="71" cy="70.6" r="64" fill="#1c75bc" stroke="#1c75bc" stroke-miterlimit="10" stroke-width="12"/>
  <g>
    <path d="M78.907,48.326c-.833,3.75-2.825,5.625-5.976,5.625h-14.547l-4.604,18.281h-8.768l4.604-18.281h-7.519c-8.229,14.25-16.271,21.375-24.124,21.375-2.286,0-4.212-.61-5.78-1.828-1.976-1.547-2.963-3.82-2.963-6.82,0-2.554.734-5.05,2.204-7.488,2.367-3.914,5.951-6.808,10.751-8.684,3.755-1.453,7.902-2.18,12.441-2.18h4.751l14.841-25.559h11.805l-6.319,25.559h19.201ZM36.072,53.951c-6.123,0-10.417,1.266-12.882,3.797-2.041,2.109-3.061,4.348-3.061,6.715,0,2.016.735,3.023,2.204,3.023,2.024,0,4.555-1.64,7.592-4.922,2.661-2.835,4.71-5.707,6.147-8.613ZM56.082,28.603l-10.727,19.723h5.461l5.266-19.723Z" fill="#fff200"/>
    <path d="M121.075,31.275c0,2.32-.641,4.301-1.923,5.941-1.281,1.641-2.82,2.461-4.616,2.461s-3.331-.82-4.604-2.461c-1.273-1.64-1.91-3.621-1.91-5.941,0-.539.065-1.242.196-2.109-.734-.093-1.2-.141-1.396-.141-2.482,0-3.723,1.489-3.723,4.465,0,1.524.73,4.934,2.192,10.23,1.461,5.297,2.192,9.445,2.192,12.445,0,6.422-2.474,11.238-7.421,14.449-3.69,2.367-8.009,3.551-12.956,3.551-4.523,0-8.532-.902-12.025-2.707-4.915-2.531-7.372-6.421-7.372-11.672,0-7.641,4.531-11.461,13.592-11.461h9.331l1.788,5.625h-7.274c-1.829,0-3.421.457-4.776,1.371-1.763,1.195-2.645,2.965-2.645,5.309,0,2.649,1.216,4.723,3.649,6.223,1.877,1.148,3.885,1.723,6.024,1.723,2.71,0,4.972-.855,6.784-2.566,2.106-1.969,3.159-4.793,3.159-8.473,0-2.531-.669-6.164-2.008-10.898-1.339-4.734-2.008-8.414-2.008-11.039,0-8.555,5.069-12.832,15.208-12.832h6.049c1.666,0,3.151.809,4.457,2.426,1.355,1.711,2.033,3.739,2.033,6.082Z" fill="#fff200"/>
  </g>
  <text transform="translate(33.286 132.43) scale(.878 1)" fill="#f15a29" font-family="Magneto-Bold, Magneto" font-size="68.324" font-weight="700" letter-spacing="-.1em"><tspan x="0" y="0">69</tspan></text>
</svg>