<?xml version="1.0" encoding="utf-8"?>
<svg version="1.2" baseProfile="tiny-ps" viewBox="0 0 300 300" xmlns="http://www.w3.org/2000/svg" crossorigin="">
  <title>ASauer</title>
  <g>
    <g fill="#fff" transform="matrix(.1 0 0 -.1 0 300)">
      <path d="M0 1500V0h3000v3000H0V1500z" />
    </g>
    <g fill="#dce4ec" transform="matrix(.1 0 0 -.1 0 300)">
      <path d="M1315 2983c-226-28-461-117-661-251l-90-60-92-88-93-87-78-104-78-104-51-97c-60-116-114-268-144-406L6 1685v-380l22-101c12-56 38-149 58-205l36-104 51-98 52-99 77-102 77-103 93-87 92-88 90-60C820 148 977 79 1170 33l105-24 166-6 166-6 84 12c46 7 129 23 184 37l100 25 106 45 107 45 92 57c51 31 134 92 184 134l92 76 71 84c220 260 335 537 362 871l9 112-9 112c-26 333-141 608-361 870l-69 82-82 69c-160 135-330 231-518 292l-94 31-113 20-114 19-146-1c-81-1-160-4-177-6zm765-567c0-2-49-142-110-312-60-169-107-311-104-316l5-8h187l37 16c21 8 71 22 111 29l72 14 174 7 173 6 60-11 60-11 40-29 40-28 24-42 23-42v-100l-29-47-28-46-54-28-53-28h-113l-50 24-51 23-26 31c-14 17-32 48-38 68l-12 36 6 39 6 39h-102l-33-15-32-16-12-25c-6-14-11-42-11-62v-37l41-115c22-63 54-155 72-205l31-90v-105l1-105-24-50-25-50-51-51-52-50-75-37-76-38-98-26-99-27h-205l-205-1-85 18c-47 10-119 32-160 48l-75 29-50 38-49 37-31 49-30 49v71l1 71 21 41c42 79 118 124 250 150 43 8 80 18 84 22 13 14 158 426 153 434l-5 8h-249l-153-153-152-153-77-52c-42-29-114-70-160-92l-83-40-84-21-84-21-98 4-97 4-68 34-68 35-24 40-23 40 4 60 3 60 19 40 19 40 61 60 61 60 80 42c93 48 200 85 317 109l82 17 210 6 210 6 265 317 265 318h203c111 0 202-2 202-4zm-541-382c-101-130-183-239-181-243 1-3 45-6 98-6h96l93 243c51 133 89 242 86 242-4 0-90-106-192-236zm-662-385c-163-13-267-48-345-114l-39-34-17-35-16-34v-82l21-21 22-22 53 6 53 5 63 31c35 16 102 59 149 94l85 64 62 68 62 67-6 9c-6 10-5 10-147-2zm934-6c-13-26-151-411-151-423v-10h139l25-56c14-31 26-58 26-60s-53-4-117-4c-65 0-149-5-188-10l-70-10-45-23-45-22-22-34-23-34v-78l15-30 16-29 41-30 41-30 61-19c34-10 88-22 121-25l60-7 70 11c90 14 143 38 199 90l45 42 17 44 17 44-6 78-5 77-37 100c-20 55-48 134-62 175l-26 75-1 75c0 41 3 90 7 108l9 32h-101l-10-17z" />
    </g>
    <g fill="#a6bbd2" transform="matrix(.1 0 0 -.1 0 300)">
      <path d="M1335 2984c-466-71-803-271-1060-629l-57-80-64-130-63-130-26-90c-14-49-33-130-42-180l-17-90v-320l17-90c9-49 28-130 42-180l26-90 55-114C359 416 738 122 1225 23l90-18h185l185 1 88 17c173 35 386 118 521 205 91 58 206 154 291 243l90 95 63 94c76 114 139 241 182 370l31 94 20 114 19 114v286l-19 114-20 114-31 94c-43 129-106 256-182 370l-63 94-90 95c-85 89-200 185-291 243-132 84-323 161-496 199l-93 20-170 4c-93 2-183 1-200-1zm745-571c0-5-49-145-109-313l-108-305 105-3 106-3 35 14c20 8 68 20 106 28l70 14h430l41-22c22-12 55-38 72-57l31-36 11-41 11-41-6-40-7-39-31-41-32-41-44-24-44-23h-128l-37 16c-49 20-90 60-113 109l-19 40v97l-55-4-56-5-27-20-27-20-9-36-9-37 16-60c10-33 39-120 66-193s54-157 61-188l13-57-5-83-4-84-29-54-29-53-51-46-50-45-80-38c-44-21-116-47-159-58l-80-21-113-11-114-11-122 11-122 11-85 20-85 21-81 39-82 39-44 50-45 50-13 46-13 46 6 53c9 94 53 150 151 197l59 28 73 12 73 12 16 41c8 22 44 120 78 216l63 175-134 3-134 3-66-73c-150-165-293-283-429-355l-78-42-89-25-88-26H294l-51 15-50 15-42 31-43 30-14 34-14 34v107l26 52 26 52 64 59 64 59 68 35c94 49 208 85 342 108l115 20 182 6 182 6 262 314 261 313h408v-7zm-535-376c-99-126-182-234-183-239l-4-9 97 3 98 3 88 230c49 127 88 233 86 236-1 4-83-97-182-224zm-750-398c-64-9-142-33-189-56-39-20-115-91-132-124l-14-28v-78l21-19 21-19 48 1 48 2 63 28 64 29 80 59c79 58 215 189 215 207v9l-82-1c-46-1-110-5-143-10zm946-191c-41-112-76-209-78-215l-5-13h139l31-67 30-68-182-5-181-5-53-24-53-24-25-36-24-36v-67l17-35 17-36 45-29 46-29 68-21 68-20 107 4 107 4 55 25c31 14 72 40 92 57l35 32 23 52 23 53-6 70-5 70-30 85c-17 47-45 126-63 175l-32 90-1 85-1 85 8 23 8 22h-107l-73-202z" />
    </g>
    <g fill="#6c89ae" transform="matrix(.1 0 0 -.1 0 300)">
      <path d="M1337 2980c-252-32-464-110-672-247l-100-67-121-120-120-121-62-94c-151-226-233-466-251-726l-7-110 7-110c17-258 99-497 246-719l67-101 125-125 126-126 85-55C876 117 1093 38 1350 9l105-12 110 7c570 32 1043 349 1285 859l49 102 30 102c17 57 37 149 46 207l15 104v234l-15 104c-9 58-29 150-46 207l-30 102-49 102c-212 446-604 747-1090 838l-85 16-135 4-135 4-68-9zm642-866c-60-169-109-311-109-316v-9l108 4 107 4 80 23 80 22 213 5 213 5 44-12 44-12 42-36 42-36 18-40 19-41v-70l-19-40-18-40-36-32-37-32-55-17-56-16-42 7c-23 4-64 19-91 33l-49 27-25 38-25 38-6 62-6 62-27 3c-14 2-45-2-68-8l-41-11-20-32-20-32 6-49 6-48 54-147c29-80 61-173 71-206l17-60 1-75v-75l-18-52-17-52-47-53-47-52-58-37-58-38-92-30c-51-17-123-36-162-43l-70-13-160 1h-160l-89 18c-49 9-125 30-170 47l-81 29-52 36-51 35-25 37c-14 20-31 50-36 65-15 38-14 120 1 171l13 41 41 41 41 41 59 23c32 12 89 27 126 33l66 11 76 211c42 115 76 213 76 218v7h-260l-42-47c-87-99-220-225-300-284l-83-61-87-44-87-44-78-22-78-21-95-1h-95l-59 19-60 19-42 40-42 41-11 43-12 42 7 38c34 185 263 338 594 397l95 16 190 6 191 6 259 313 260 313h211l211 1-108-306zm-439-86-182-233 93-3 92-3 8 13c5 7 37 89 73 183 35 93 74 194 85 223 11 28 19 52 17 52s-86-105-186-232zm-695-385c-16-2-64-11-105-19l-75-16-48-25c-93-47-157-124-157-190v-29l16-22 15-22h99l49 19c27 10 83 40 123 67l73 49 83 79c46 44 88 88 93 98l10 18-73-1c-40-1-86-4-103-6zm894-206-76-212 69-3 68-3 30-66c17-36 30-67 30-69s-72-4-159-4h-159l-64-20-64-19-26-28c-50-54-60-100-34-151 32-62 103-105 215-132l53-13 92 6 91 5 57 21 57 22 45 44 45 43 17 58 16 57-6 53c-6 57-30 134-91 299l-37 100-5 81-6 82 11 31 11 31h-104l-76-213z" />
    </g>
    <g fill="#2f5287" transform="matrix(.1 0 0 -.1 0 300)">
      <path d="M1367 2980c-257-24-484-105-699-249l-103-69-78-72c-226-210-379-478-449-791l-23-104v-400l23-104c62-277 187-516 374-715C676 193 1019 34 1425 5l90-6 110 11c283 29 520 116 742 273l87 62 91 90c188 186 314 399 389 659l26 88 15 115c19 144 19 252 0 396l-15 115-26 88c-75 259-201 472-390 659l-90 90-82 58c-44 32-128 83-184 112l-104 54-119 40-120 39-95 16c-52 8-140 17-195 19l-100 5-88-8zm674-697c-27-76-76-215-110-310s-61-174-61-177c0-4 40-6 90-6h90l87 27 88 26 240 4 240 5 55-29 55-29 30-43 30-43v-134l-24-35c-13-19-39-46-58-61l-35-27-53-12-53-12-46 7-45 7-48 32-48 32-22 40-23 40v105h-101l-29-15-29-15-10-37-10-36 9-42c5-23 36-116 69-207l60-164 12-68 11-68-6-57-7-56-24-53-24-52-51-50-51-49-82-41-82-40-100-26-100-25-135-6-135-6-104 12-104 12-84 25c-100 29-172 64-231 111l-43 35-25 50-25 50v126l16 38c9 22 30 53 47 71l30 31 61 27 60 27 69 12 70 12 8 14c8 16 150 408 150 416 0 2-57 4-126 4h-126l-136-139-137-139-84-62-84-61-91-44c-50-24-120-52-156-61l-65-18H275l-56 22-56 22-37 37-36 37-11 40-11 41 5 37c7 50 39 115 82 166l36 41 74 50 74 49 83 32 83 33 115 24 115 25 204 5 203 6 262 313 261 314h424l-48-137zm-486-240c-88-112-168-215-178-229l-19-24h189l87 227c47 124 85 227 84 229-2 1-75-90-163-203zm-680-399c-85-10-176-29-223-46l-52-19-51-41-51-40-19-41c-10-23-19-54-19-69v-28l21-21 22-22 56 6 57 5 60 30c104 53 272 189 326 265l19 27-58-1c-32-1-71-4-88-5zm936-16c-46-123-141-391-141-398v-10h131l30-65c16-35 29-67 29-70s-65-5-145-5h-144l-53-11c-98-21-151-58-168-120l-10-33 10-36 10-36 27-26c84-79 263-117 405-87 103 22 180 75 220 152l21 42v140l-42 120c-24 66-54 156-67 200l-25 80-2 55c-1 30 2 72 6 93l8 37h-91l-9-22z" />
    </g>
    <g fill="#022262" transform="matrix(.1 0 0 -.1 0 300)">
      <path d="M1275 2965C643 2866 152 2387 34 1755l-19-100 1-165v-165l17-95c23-126 76-282 138-405l50-100 67-94 67-94 85-86C671 218 952 75 1274 23l100-15 175 5 176 5 86 20c195 46 360 117 519 223l93 62 100 96 100 96 57 75c175 232 270 474 301 773l11 102-6 100c-4 55-14 141-22 190l-15 90-39 116c-46 140-97 244-180 368l-62 92-86 91c-236 247-533 403-862 453l-95 15-135-1-135-1-80-13zm815-544c0-5-49-148-110-317-60-170-110-310-110-311 0-2 42-3 93-3h92l50 19c28 10 84 24 125 31l75 13 200 1 200 1 35-16c51-23 98-66 120-110l20-38v-102l-20-39-20-39-33-25c-18-14-50-32-70-41l-36-15h-47c-26 0-65 6-88 12l-41 13-46 45-47 45-12 44-12 45 6 29 6 29-62-4-61-4-25-29-24-29 4-55 5-56 55-151c31-84 64-184 73-223l18-71-5-72-5-73-28-58-29-59-54-49-54-49-73-35-74-36-98-26-98-25-162-5-161-6-84 12c-116 17-221 46-304 86l-70 34-46 49-46 50-16 53c-19 63-20 85-4 147l11 46 51 52 51 51 57 21c32 12 85 26 119 31 34 6 63 12 64 13 2 2 34 91 73 198s73 203 77 213l7 17h-261l-21-27c-11-16-69-77-128-136-198-201-367-307-560-351l-71-16H302l-61 19-62 19-35 27-36 28-19 41-19 41v92l31 61 30 61 64 59 64 58 83 41 84 42 86 25c48 14 134 32 191 40l105 16h329l266 320 267 320h420v-9zm-553-405c-92-118-167-217-167-220s39-6 88-6h87l82 217c46 119 82 218 80 220-2 1-78-94-170-211zm-668-376c-105-10-193-32-256-64l-48-24-43-43-42-43-10-36c-14-50-13-58 15-85l24-25h31c17 0 55 9 86 19l55 20 86 57 86 57 78 78c44 42 79 82 79 88v11l-27-1c-16-1-67-5-114-9zm948-2c-35-96-147-407-147-412 0-3 30-6 68-6h67l32-70 31-70h-126c-70 0-158-5-197-11l-70-10-43-21-44-21-19-31-19-31v-80l19-32 20-31 43-25c50-30 130-53 208-62l55-6 70 11c85 14 139 37 190 81l38 34 18 40 19 40v140l-46 130c-25 72-55 159-66 195l-21 65-1 70c-1 39 2 82 7 98l7 27h-88l-5-12z" />
    </g>
  </g>
</svg>